<svg xmlns="http://www.w3.org/2000/svg" xmlns:xlink="http://www.w3.org/1999/xlink" viewBox="0 0 497.82 76.36">
  <defs>
    <linearGradient id="New_Gradient_Swatch_2" data-name="New Gradient Swatch 2" x1="248.23" y1="1.54" x2="249.59" y2="79.77" gradientUnits="userSpaceOnUse">
      <stop offset="0" stop-color="#12b2d6"/>
      <stop offset="1" stop-color="#255aa7"/>
    </linearGradient>
    <linearGradient id="linear-gradient" x1="9.23" y1="65.38" x2="452.27" y2="65.38" gradientUnits="userSpaceOnUse">
      <stop offset="0" stop-color="#fff"/>
      <stop offset="0.29" stop-color="#f6f6f6"/>
      <stop offset="0.5" stop-color="#ededed"/>
      <stop offset="0.74" stop-color="#f0f0f0"/>
      <stop offset="0.95" stop-color="#fbfbfb"/>
      <stop offset="1" stop-color="#fff"/>
    </linearGradient>
  </defs>
  <g id="Layer_2" data-name="Layer 2">
    <g id="focused-card">
      <polygon id="focs-bg" points="52.74 4.95 0 76.35 445.16 76.36 497.82 5.05 52.74 4.95" style="fill: url(#New_Gradient_Swatch_2)"/>
      <polygon id="focs-boost" points="18.16 59.28 9.23 71.37 443.26 71.48 452.27 59.28 18.16 59.28" style="fill: url(#linear-gradient)"/>
      <text id="focused-name" transform="translate(47.75 43.84)" style="font-size: 26.31485939025879px;fill: #fff;font-family: IntegralCF-Regular, Integral CF">Temp Name</text>
      <path id="goals-icon" d="M334.3,28l-5.69-5.5,2.25-1.9-2.23-1.95,2.58-3.72-4.55.41,1.84-7.07-5.09,5-2-2.71-1.95,2.68-4.88-4.47,1.63,6.59-3,.27,1.09,3-7.24,2,7,2-1.75,3.28,3.76.05-2.82,8.7,6.18-6.75,1.95,6.68,2-6.7,3.38,2-.19-4Zm-14.09-5.34h2.26a.47.47,0,0,1,.38.19l.34.47a.46.46,0,0,1,.07.41l-.66,2a.44.44,0,0,1-.43.31h-1.65a.46.46,0,0,1-.44-.31l-.65-2a.44.44,0,0,1,.07-.41l.34-.47a.47.47,0,0,1,.37-.19Zm-.89-2.7a.35.35,0,0,1,.12-.39l1.7-1.23a.36.36,0,0,1,.4,0l1.7,1.23a.35.35,0,0,1,.12.39l-.64,2a.34.34,0,0,1-.33.24H320.3a.33.33,0,0,1-.33-.24Zm3.84,2.66a.46.46,0,0,1-.07-.41l.69-2.11a.46.46,0,0,1,.3-.29l.54-.18a.46.46,0,0,1,.41.06l1.68,1.22a.49.49,0,0,1,.16.52l-.5,1.53a.45.45,0,0,1-.43.32h-2.07a.47.47,0,0,1-.37-.19ZM327,24a.12.12,0,0,1-.17,0,.13.13,0,0,1-.06-.07l-.15-.48a.09.09,0,0,1,0-.07l.73-2.25a.1.1,0,0,1,.05-.06l.41-.3a.12.12,0,0,1,.17,0,.08.08,0,0,1,0,.08A6.64,6.64,0,0,1,327,24Zm-.35-7.25a.48.48,0,0,1,.4.22,6.85,6.85,0,0,1,1,2.91.46.46,0,0,1-.19.41l-.35.26a.47.47,0,0,1-.55,0l-1.55-1.13a.45.45,0,0,1-.17-.51l.6-1.84a.46.46,0,0,1,.43-.32Zm-2.83-2.5a6.74,6.74,0,0,1,2.62,1.91.13.13,0,0,1,0,.18.11.11,0,0,1-.08,0h-.51a.11.11,0,0,1-.07,0L323.9,15l0-.06-.15-.48a.13.13,0,0,1,.08-.16Zm.05,1.23,1.3.94a.48.48,0,0,1,.17.52l-.64,2a.46.46,0,0,1-.3.29l-.54.18a.46.46,0,0,1-.41-.07L321.7,18a.45.45,0,0,1-.19-.37v-.57a.47.47,0,0,1,.19-.38l1.67-1.21A.45.45,0,0,1,323.91,15.48Zm-4.57-.85.14-.42a.49.49,0,0,1,.33-.31,6.87,6.87,0,0,1,3.06,0,.45.45,0,0,1,.33.31l.14.41a.48.48,0,0,1-.17.52l-1.56,1.13a.45.45,0,0,1-.54,0l-1.56-1.13a.47.47,0,0,1-.16-.52Zm1.59,2.06a.49.49,0,0,1,.18.38v.57a.47.47,0,0,1-.18.37l-1.8,1.31a.46.46,0,0,1-.41.06l-.54-.18a.46.46,0,0,1-.3-.29l-.64-2a.48.48,0,0,1,.17-.52l1.3-.94a.45.45,0,0,1,.54,0Zm-4.73-.53a6.76,6.76,0,0,1,2.62-1.9.13.13,0,0,1,.17.06.14.14,0,0,1,0,.09l-.15.48a.1.1,0,0,1,0,.06l-1.91,1.4-.08,0h-.5a.12.12,0,0,1-.13-.12.16.16,0,0,1,0-.09Zm-1.55,3.72a6.72,6.72,0,0,1,1-2.91.47.47,0,0,1,.39-.22h.44a.47.47,0,0,1,.43.32l.6,1.83a.48.48,0,0,1-.17.52l-1.56,1.13a.45.45,0,0,1-.54,0l-.35-.25A.45.45,0,0,1,314.65,19.88ZM316,23.5l-.16.47a.12.12,0,0,1-.16.08.07.07,0,0,1-.06-.05,6.65,6.65,0,0,1-1-3.08.12.12,0,0,1,.12-.13.08.08,0,0,1,.08,0l.41.3a.07.07,0,0,1,0,.06l.74,2.25Zm-.22-2.09a.48.48,0,0,1,.17-.52l1.67-1.22a.46.46,0,0,1,.41-.06l.55.18a.42.42,0,0,1,.29.29l.69,2.11a.46.46,0,0,1-.07.41l-.34.47a.47.47,0,0,1-.37.19h-2.07a.45.45,0,0,1-.43-.32Zm3.73,4.9-.36.25a.43.43,0,0,1-.45.05,6.77,6.77,0,0,1-2.47-1.8.47.47,0,0,1-.09-.44l.14-.41a.45.45,0,0,1,.43-.32h1.93a.46.46,0,0,1,.44.32l.6,1.83a.48.48,0,0,1-.17.52ZM323,27a6.62,6.62,0,0,1-3.25,0,.13.13,0,0,1-.1-.15.18.18,0,0,1,.05-.07l.41-.3.08,0h2.36l.07,0,.42.3a.13.13,0,0,1,0,.17.12.12,0,0,1-.07,0Zm3.45-2.16a6.69,6.69,0,0,1-2.47,1.8.48.48,0,0,1-.45-.05l-.35-.26a.46.46,0,0,1-.17-.51l.6-1.83a.45.45,0,0,1,.43-.32h1.93a.46.46,0,0,1,.44.32l.13.41A.44.44,0,0,1,326.42,24.81Z"/>
      <path id="saves-icon" d="M404.73,8.25c-5,0-9,1.25-9,2.79s4,2.8,9,2.8,9-1.25,9-2.8S409.7,8.25,404.73,8.25Zm0,5c-3.88,0-7-1-7-2.17s3.14-2.17,7-2.17,7,1,7,2.17S408.6,13.21,404.73,13.21Zm-2.91,11,.93,2.86a.5.5,0,0,0,.47.35h3a.5.5,0,0,0,.47-.35l.93-2.86a.51.51,0,0,0-.18-.55L405,21.88a.51.51,0,0,0-.58,0L402,23.65A.51.51,0,0,0,401.82,24.2ZM398.29,20l.85,2.63a.66.66,0,0,1-.24.74L396.66,25a.65.65,0,0,1-.77,0l-.51-.37a.65.65,0,0,1-.27-.58,9.61,9.61,0,0,1,1.37-4.19.66.66,0,0,1,.56-.31h.62A.67.67,0,0,1,398.29,20Zm3.34,8.62.48-.67a.63.63,0,0,0,.09-.59l-1-3a.63.63,0,0,0-.42-.42l-.78-.26a.66.66,0,0,0-.59.1L397,25.51a.66.66,0,0,0-.24.74l.71,2.2a.66.66,0,0,0,.63.45h3a.63.63,0,0,0,.53-.26Zm4.89,3.82.92-2.85a.67.67,0,0,0-.09-.6l-.49-.67a.65.65,0,0,0-.53-.27h-3.21a.65.65,0,0,0-.53.27l-.49.67a.68.68,0,0,0-.09.6l.92,2.85a.66.66,0,0,0,.63.45h2.33A.66.66,0,0,0,406.52,32.46ZM405,20v.82a.68.68,0,0,0,.27.54l2.58,1.87a.65.65,0,0,0,.59.09l.78-.25a.67.67,0,0,0,.42-.43l.92-2.83a.65.65,0,0,0-.24-.73l-1.87-1.36a.65.65,0,0,0-.77,0l-2.41,1.74A.68.68,0,0,0,405,20Zm9.35,4A9.73,9.73,0,0,0,413,19.87a.68.68,0,0,0-.57-.31h-.62a.67.67,0,0,0-.63.46l-.85,2.63a.66.66,0,0,0,.24.74L412.79,25a.65.65,0,0,0,.77,0l.51-.36A.68.68,0,0,0,414.34,24.06ZM412,28.45l.71-2.2a.66.66,0,0,0-.24-.74L410,23.76a.68.68,0,0,0-.6-.09l-.78.25a.65.65,0,0,0-.42.42l-1,3a.66.66,0,0,0,.1.59l.48.67a.65.65,0,0,0,.53.27h3A.66.66,0,0,0,412,28.45Zm-13.12-8.61.92,2.83a.67.67,0,0,0,.42.43l.78.25a.65.65,0,0,0,.59-.09l2.58-1.87a.68.68,0,0,0,.27-.54V20a.68.68,0,0,0-.27-.54l-2.4-1.74a.66.66,0,0,0-.78,0l-1.87,1.35A.66.66,0,0,0,398.84,19.84Zm12.49,9.65h-2.77a.68.68,0,0,0-.63.46l-.85,2.63a.66.66,0,0,0,.24.74l.51.37a.66.66,0,0,0,.64.07A9.59,9.59,0,0,0,412,31.17a.65.65,0,0,0,.13-.63L412,30A.67.67,0,0,0,411.33,29.49Zm-9.71,4.2.51-.37a.66.66,0,0,0,.24-.74L401.51,30a.65.65,0,0,0-.62-.45h-2.77a.66.66,0,0,0-.63.45l-.19.59a.66.66,0,0,0,.13.63A9.7,9.7,0,0,0,401,33.76.66.66,0,0,0,401.62,33.69Zm5.78-17.76a.65.65,0,0,0-.48-.44,9.57,9.57,0,0,0-4.39,0,.65.65,0,0,0-.48.44l-.19.59a.66.66,0,0,0,.24.74l2.24,1.63a.65.65,0,0,0,.77,0l2.24-1.63a.65.65,0,0,0,.24-.73Zm6.66,9.47-.58.43a.16.16,0,0,0-.07.09l-1.05,3.23a.21.21,0,0,0,0,.11l.23.69a.18.18,0,0,0,.22.12.25.25,0,0,0,.1-.08,9.71,9.71,0,0,0,1.44-4.43.17.17,0,0,0-.17-.19.18.18,0,0,0-.12,0ZM407.12,34l-.59-.43a.19.19,0,0,0-.1,0H403a.2.2,0,0,0-.11,0l-.59.43a.18.18,0,0,0,0,.25.23.23,0,0,0,.1.07,9.71,9.71,0,0,0,4.67,0,.19.19,0,0,0,.13-.22A.14.14,0,0,0,407.12,34Zm-10-4.81-1-3.23a.13.13,0,0,0-.07-.09l-.58-.43a.18.18,0,0,0-.25,0,.2.2,0,0,0,0,.13A9.59,9.59,0,0,0,396.54,30a.18.18,0,0,0,.25.05.16.16,0,0,0,.07-.09l.23-.69A.2.2,0,0,0,397.09,29.15Zm11-13,.22.7a.18.18,0,0,0,.07.08l2.75,2a.17.17,0,0,0,.1,0H412a.18.18,0,0,0,.18-.18.15.15,0,0,0,0-.11,9.59,9.59,0,0,0-3.77-2.74.18.18,0,0,0-.23.1.13.13,0,0,0,0,.12Zm-9.8,2.78,2.75-2a.16.16,0,0,0,.06-.08l.23-.7a.19.19,0,0,0-.12-.22h-.12a9.77,9.77,0,0,0-3.77,2.74.19.19,0,0,0,0,.26.21.21,0,0,0,.11,0h.72A.21.21,0,0,0,398.31,18.94Z"/>
      <path id="assists-icon" d="M371.16,31.25a.15.15,0,0,1-.23-.18,8.06,8.06,0,0,0,.42-.95,4.28,4.28,0,0,1,1.09-1.72A14.17,14.17,0,0,1,376,25.86a.91.91,0,0,0,.39-.65,1.07,1.07,0,0,0-.22-.69.9.9,0,0,0-1.34-.2l-2.55,1.89a.5.5,0,0,1-.52.09.61.61,0,0,1-.35-.53c0-.14-.06-.43,2.08-6.17,1-2.81,2.11-5.58,2.12-5.61a.76.76,0,0,0-.47-1,.88.88,0,0,0-.6,0,.8.8,0,0,0-.44.48l-2.82,7.36a.73.73,0,0,1-1,.4.74.74,0,0,1-.47-1l3.74-9.74A.81.81,0,0,0,372,9.89l-3.19,8.31a.36.36,0,0,1-.68,0l-.43-1.13a.39.39,0,0,1,0-.26L370,10.88a.81.81,0,1,0-1.51-.58l-1.33,3.49a.36.36,0,0,1-.68,0l-.21-.53a.39.39,0,0,1,0-.26l1.18-3.11a1.86,1.86,0,0,1,1.76-1.24,2,2,0,0,1,1.66.86l.06.1,0-.12a1.85,1.85,0,0,1,1.76-1.24,2,2,0,0,1,1.66.86,1.87,1.87,0,0,1,.18,1.76l-.38,1a1.7,1.7,0,0,1,.59-.1,2,2,0,0,1,1.66.86,1.89,1.89,0,0,1,.18,1.77c-1.41,3.67-2.92,7.72-3.66,9.88l1.15-.86a2,2,0,0,1,1.26-.43,2.14,2.14,0,0,1,2,1.49,2,2,0,0,1-.74,2.3l-.06,0-.06,0a15.72,15.72,0,0,0-4.6,3.73Zm-18.69-4.2c5.71,2.91,5.86,7.51,11.51,7.51,4.18,0,7.63-4.36,6.67-7.32l-5.93-15.59a1.12,1.12,0,0,0-2.09.8L365,18.62a.5.5,0,1,1-.93.36l-3.31-8.63a1.13,1.13,0,0,0-2.1.81L362,19.78a.54.54,0,0,1-1,.38L357,9.92a1.12,1.12,0,0,0-2.1.8L358.87,21c.24.62-.79,1-1,.39l-3-7.73a1.13,1.13,0,1,0-2.1.81s4.48,11.65,4.39,12.25c-.05.35-.25.45-.46.29L354,25A1.29,1.29,0,0,0,352.47,27.05Z"/>
      <path id="shots-icon" d="M434.06,12.82c-2.3-.8-2-4.57-2-4.57s1.57,3.38,4.06,3.61c1.49.14,2.35,2.63,1.91,5.33C437.63,16.22,436,13.5,434.06,12.82Zm2.17,9.29c-.44,1.58.43,5.1,4,6.62a4.62,4.62,0,0,1-.92-1.76C439.25,26.25,437.29,26.09,436.23,22.11Zm6.55-8c.42,2.84,2.46,3.67,3.37,3.67-1.61-.57-.79-.63-2.08-4.06-1.55-4.08-5.18-3.07-5.18-3.07a4.13,4.13,0,0,1,3.89,3.46Zm14,12.3a8.17,8.17,0,0,1-16.22,1.36c-.63-1.05-1.48-1.45-1.89-2.69-.9-2.75-.6-3.57-2.49-4.11s-2.12-3.83-2.12-3.83,1.16,2.52,3.51,2.86c1,.15,1.67,2.08,2.35,2.72s2.19-.86,1.23-1.36c-1.42-.75-2.38-1.39-2.59-3.35-.15-1.43.4-2.88-.13-4.3a5,5,0,0,0-2.59-3s4.44.26,4.5,4.71c.05,3.52,2.75,4.78,3.59,4.3.44-.26-.13-1-1.47-1.93-1.14-.77-1.12-4.36-1.12-4.36s2,5.48,5.64,5c3.15-.46-.62-1.92-.62-1.92a3.18,3.18,0,0,1,2.41.05c1.47.56,1.32,1.31,1.63,1.9A8.16,8.16,0,0,1,456.78,26.39Zm-2.94-3.93a.48.48,0,0,0-.46.34l-.64,1.95a.48.48,0,0,0,.18.55l1.66,1.21a.5.5,0,0,0,.57,0l.38-.27a.51.51,0,0,0,.2-.44,7.1,7.1,0,0,0-1-3.1.49.49,0,0,0-.42-.24ZM446,26a.51.51,0,0,0-.32-.32l-.58-.18a.47.47,0,0,0-.44.07l-1.78,1.29a.51.51,0,0,0-.18.55l.53,1.63a.51.51,0,0,0,.47.34h2.2a.49.49,0,0,0,.4-.2l.36-.49a.49.49,0,0,0,.06-.44Zm.44-.1.69,2.13a.37.37,0,0,0,.35.25h2.23a.37.37,0,0,0,.35-.25l.69-2.13a.39.39,0,0,0-.14-.41l-1.8-1.31a.38.38,0,0,0-.43,0l-1.81,1.31a.37.37,0,0,0-.13.41Zm.12,4,.7,2.13a.47.47,0,0,0,.46.34h1.75a.48.48,0,0,0,.46-.34l.69-2.13a.45.45,0,0,0-.07-.43L450.2,29a.47.47,0,0,0-.39-.2h-2.4a.46.46,0,0,0-.39.2l-.38.5a.53.53,0,0,0-.07.44Zm4.33-.71a.49.49,0,0,0,.39.2h2.21A.48.48,0,0,0,454,29l.53-1.63a.47.47,0,0,0-.18-.55l-1.78-1.3a.53.53,0,0,0-.44-.07l-.58.19a.49.49,0,0,0-.31.32l-.73,2.24a.49.49,0,0,0,.07.44Zm.21-9.27.17.51a.1.1,0,0,0,0,.07l2,1.48.08,0H454a.13.13,0,0,0,.13-.13.16.16,0,0,0,0-.09,7.22,7.22,0,0,0-2.79-2,.15.15,0,0,0-.18.08.14.14,0,0,0,0,.09Zm-.35,1.18L449,22.39a.49.49,0,0,0-.2.39v.61a.5.5,0,0,0,.2.39l1.91,1.39a.49.49,0,0,0,.44.07l.58-.19a.52.52,0,0,0,.32-.31l.68-2.1a.49.49,0,0,0-.18-.55l-1.39-1a.48.48,0,0,0-.57,0Zm-4.1-.36,1.65,1.2a.48.48,0,0,0,.58,0l1.66-1.2a.51.51,0,0,0,.18-.55l-.15-.45a.47.47,0,0,0-.35-.32,7.18,7.18,0,0,0-3.26,0,.47.47,0,0,0-.35.32l-.14.45a.48.48,0,0,0,.18.55Zm-.84.36-1.39,1a.51.51,0,0,0-.18.55l.69,2.1a.47.47,0,0,0,.31.32l.58.18a.49.49,0,0,0,.44-.06l1.91-1.39a.47.47,0,0,0,.2-.39v-.62a.46.46,0,0,0-.2-.39l-1.79-1.3a.47.47,0,0,0-.57,0Zm-2.59.9h.54l.08,0,2-1.48a.12.12,0,0,0,.05-.07l.17-.51a.14.14,0,0,0-.09-.17h-.09a7.22,7.22,0,0,0-2.79,2,.13.13,0,0,0,0,.19A.11.11,0,0,0,443.23,22Zm-1.55,4.24.37.28a.51.51,0,0,0,.58,0l1.66-1.21a.5.5,0,0,0,.18-.55l-.64-1.95a.48.48,0,0,0-.46-.34h-.47a.46.46,0,0,0-.41.24,7.1,7.1,0,0,0-1,3.1A.46.46,0,0,0,441.68,26.23Zm1.26,3.31-.78-2.39a.1.1,0,0,0,0-.07l-.44-.31a.13.13,0,0,0-.19,0,.19.19,0,0,0,0,.08,7.08,7.08,0,0,0,1.07,3.28.13.13,0,0,0,.18,0,.12.12,0,0,0,0-.07l.17-.51a.11.11,0,0,0,0-.08Zm3.92,2.52-.64-2a.48.48,0,0,0-.46-.34h-2.05a.51.51,0,0,0-.47.34l-.14.44a.5.5,0,0,0,.09.47,7.17,7.17,0,0,0,2.64,1.91.47.47,0,0,0,.47,0l.38-.27a.51.51,0,0,0,.18-.55Zm3.52,1-.44-.32a.08.08,0,0,0-.08,0h-2.52a.07.07,0,0,0-.07,0l-.44.32a.13.13,0,0,0,0,.18s0,0,.07,0a7,7,0,0,0,3.46,0,.13.13,0,0,0,.1-.16.18.18,0,0,0-.05-.07Zm3.73-2.55-.14-.44a.49.49,0,0,0-.47-.34h-2.05a.51.51,0,0,0-.47.34l-.63,2a.48.48,0,0,0,.18.55l.37.27a.51.51,0,0,0,.48.06A7.25,7.25,0,0,0,454,31a.52.52,0,0,0,.1-.48Zm.56-.39a7.08,7.08,0,0,0,1.07-3.28.13.13,0,0,0-.13-.14.11.11,0,0,0-.08,0l-.44.32a.15.15,0,0,0,0,.06l-.78,2.4v.08l.17.51a.13.13,0,0,0,.24,0Z"/>
      <text id="goals" transform="translate(314.85 52.94)" style="font-size: 17.54323959350586px;font-family: Arial-Black, Arial;font-weight: 800">5</text>
      <text id="assists" transform="translate(358.85 52.94)" style="font-size: 17.54323959350586px;font-family: Arial-Black, Arial;font-weight: 800">3</text>
      <text id="saves" transform="translate(398.87 52.94)" style="font-size: 17.54323959350586px;font-family: Arial-Black, Arial;font-weight: 800">2</text>
      <text id="shots" transform="translate(438.57 52.94)" style="font-size: 17.54323959350586px;font-family: Arial-Black, Arial;font-weight: 800">4</text>
    </g>
  </g>
</svg>
